<svg xmlns="http://www.w3.org/2000/svg" width="70.419" height="24" viewBox="0 0 70.419 24">
  <g id="Zoho-logo" transform="translate(-0.004 0.004)">
    <g id="Group_1221" data-name="Group 1221" transform="translate(16.48 -0.004)">
      <path id="Path_593" data-name="Path 593" d="M145.954,24a3.8,3.8,0,0,1-1.542-.33L133.055,18.6a3.79,3.79,0,0,1-1.918-5L136.2,2.242a3.794,3.794,0,0,1,5-1.918L152.56,5.386a3.8,3.8,0,0,1,1.918,5l-5.062,11.357A3.8,3.8,0,0,1,145.954,24ZM139.663,2.063a1.724,1.724,0,0,0-1.576,1.021l-5.061,11.357a1.726,1.726,0,0,0,.872,2.275l11.357,5.062h0a1.721,1.721,0,0,0,2.273-.872L152.591,9.55a1.726,1.726,0,0,0-.872-2.275L140.362,2.213A1.708,1.708,0,0,0,139.663,2.063Z" transform="translate(-130.808 0.004)" fill="#049849"/>
    </g>
    <g id="Group_1222" data-name="Group 1222" transform="translate(50.411 3.98)">
      <path id="Path_594" data-name="Path 594" d="M416.423,51.642H403.989a3.793,3.793,0,0,1-3.789-3.789V35.419a3.793,3.793,0,0,1,3.789-3.789h12.434a3.793,3.793,0,0,1,3.789,3.789V47.853a3.793,3.793,0,0,1-3.789,3.789ZM403.989,33.7a1.723,1.723,0,0,0-1.722,1.722V47.852a1.723,1.723,0,0,0,1.722,1.722h12.434a1.723,1.723,0,0,0,1.722-1.722V35.419a1.723,1.723,0,0,0-1.722-1.722H403.989Z" transform="translate(-400.2 -31.63)" fill="#f6b11b"/>
    </g>
    <path id="Path_595" data-name="Path 595" d="M20.593,25.171l-1.537,3.447.7,4.308A1.724,1.724,0,0,1,18.327,34.9L6.051,36.884a1.723,1.723,0,0,1-1.975-1.426L2.094,23.186a1.724,1.724,0,0,1,1.426-1.975l12.276-1.984a1.718,1.718,0,0,1,1.975,1.426l.685,4.241,1.537-3.447-.181-1.124a3.788,3.788,0,0,0-4.345-3.135L3.189,19.17A3.793,3.793,0,0,0,.053,23.516L2.037,35.79a3.791,3.791,0,0,0,3.732,3.187,3.9,3.9,0,0,0,.613-.049l12.274-1.984h0A3.793,3.793,0,0,0,21.793,32.6Z" transform="translate(0 -14.983)" fill="#e22728"/>
    <g id="Group_1223" data-name="Group 1223" transform="translate(34.312 2.417)">
      <path id="Path_596" data-name="Path 596" d="M303.4,48.03h-.024a1.723,1.723,0,0,0-1.722,1.722v.771l1.328,9.755a1.723,1.723,0,0,1-1.475,1.938l-12.321,1.676a1.723,1.723,0,0,1-1.938-1.475l-.561-4.121-1.6,3.586.111.814a3.8,3.8,0,0,0,3.752,3.279,3.737,3.737,0,0,0,.514-.035l12.321-1.676A3.793,3.793,0,0,0,305.031,60Z" transform="translate(-283.489 -44.401)" fill="#226eb3"/>
      <path id="Path_597" data-name="Path 597" d="M274.464,24.914a1.723,1.723,0,0,1,1.475-1.938L288.26,21.3a1.827,1.827,0,0,1,.233-.016,1.722,1.722,0,0,1,1.209.5,3.781,3.781,0,0,1,1.9-.945,3.8,3.8,0,0,0-3.621-1.587l-12.32,1.676a3.789,3.789,0,0,0-3.243,4.266l1.037,7.617,1.6-3.586Z" transform="translate(-272.381 -19.216)" fill="#226eb3"/>
    </g>
  </g>
</svg>
